<svg width="7773" height="1547" viewBox="0 0 7773 1547" fill="none" xmlns="http://www.w3.org/2000/svg">
<rect width="7773" height="1547" fill="black"/>
<path d="M1448.79 681.282L1488.31 556.45H1285.14L1345.65 355.502H1217.14L1082.86 779.726H816.448L682.102 355.502H553.592L614.105 556.45H411L450.517 681.282H651.719L681.341 779.726H481.662L521.179 904.557H718.892L843.026 1317.05H1056.15L1180.29 904.557H1378L1417.52 779.726H1217.84L1247.46 681.282H1448.79ZM949.653 1200.65L855.966 904.621H1043.4L949.716 1200.65H949.653Z" fill="white"/>
<path d="M2012.66 983.482L1850.32 546.746H1712L1934.92 1102.31H2089.25L2312.17 546.746H2174.99L2012.66 983.482Z" fill="white"/>
<path d="M2512.23 356H2378.47V468.572H2512.23V356Z" fill="white"/>
<path d="M2508.8 546.746H2380.76V1102.31H2508.8V546.746Z" fill="white"/>
<path d="M3040.37 624.921C3023.59 596.449 2999.4 574.176 2967.81 558.212C2936.16 542.248 2898.26 534.238 2854.1 534.238C2796.94 534.238 2749.65 547.459 2712.34 573.847C2674.98 600.289 2647 635.344 2628.29 679.122C2609.64 722.9 2600.31 771.56 2600.31 825.048C2600.31 878.536 2609.64 927.196 2628.29 970.974C2646.94 1014.75 2675.16 1049.7 2712.88 1075.76C2750.61 1101.81 2797.66 1114.82 2854.1 1114.82C2889.11 1114.82 2920.4 1109.77 2947.84 1099.73C2975.27 1089.69 2998.32 1075.04 3017.03 1055.95C3028.4 1044.32 3037.85 1031.43 3045.37 1017.33L3048.44 1102.31H3168.47V546.746H3040.43V624.921H3040.37ZM3025.51 918.309C3015.59 947.878 2999.76 971.468 2978.04 989.187C2956.32 1006.91 2926.78 1015.79 2889.41 1015.79C2852.05 1015.79 2824.07 1006.74 2800.79 988.694C2777.5 970.645 2760.6 947.001 2749.95 917.815C2739.24 888.63 2733.94 857.689 2733.94 825.048C2733.94 790.322 2739.48 758.504 2750.49 729.702C2761.5 700.901 2778.53 677.751 2801.39 660.415C2824.25 643.025 2853.55 634.357 2889.41 634.357C2925.27 634.357 2956.32 643.025 2978.04 660.415C2999.76 677.805 3015.59 700.737 3025.51 729.209C3035.38 757.736 3040.37 789.664 3040.37 825.103C3040.37 857.799 3035.38 888.85 3025.51 918.364V918.309Z" fill="white"/>
<path d="M3726.28 561.887C3695.78 543.455 3658.05 534.238 3613.11 534.238C3580.32 534.238 3550.23 539.614 3522.8 550.367C3495.36 561.174 3472.32 578.016 3453.66 600.947C3443.56 613.346 3435.25 627.828 3428.63 644.341L3425.69 546.746H3309.08V1102.31H3437.12V782.313C3437.12 733.707 3449.87 696.512 3475.44 670.783C3500.96 645.109 3534.71 632.217 3576.59 632.217C3604.02 632.217 3626.1 637.977 3642.89 649.443C3659.62 660.909 3671.83 677.75 3679.47 699.969C3687.05 722.187 3690.9 749.671 3690.9 782.313V1102.31H3818.94V744.789C3818.94 704.522 3811.12 668.534 3795.47 636.88C3779.83 605.281 3756.79 580.265 3726.34 561.833L3726.28 561.887Z" fill="white"/>
<path d="M4343 569.184C4300.7 545.923 4251.36 534.238 4194.93 534.238C4138.49 534.238 4085.36 546.417 4042.28 570.72C3999.2 595.077 3965.87 628.761 3942.28 671.826C3918.64 714.945 3906.84 766.019 3906.84 825.048C3906.84 884.077 3918.64 934.328 3942.28 977.722C3965.87 1021.17 3999.62 1054.85 4043.48 1078.83C4087.29 1102.8 4138.97 1114.82 4198.41 1114.82C4266.22 1114.82 4323.98 1099.18 4371.64 1067.91C4419.23 1036.64 4451.48 994.619 4468.21 941.789L4334.45 934.493C4325.31 959.508 4309.3 979.313 4286.44 993.905C4263.58 1008.5 4234.58 1015.79 4199.56 1015.79C4152.27 1015.79 4114.78 1002.74 4086.98 976.734C4059.19 950.676 4043.73 911.232 4040.66 858.403H4476.21V830.26C4476.21 767.72 4464.6 714.397 4441.37 670.235C4418.09 626.128 4385.35 592.444 4343.06 569.129L4343 569.184ZM4040.66 772.932C4047.52 727.069 4064.48 692.179 4091.56 668.205C4118.63 644.231 4153.11 632.217 4195.05 632.217C4236.98 632.217 4269.95 643.683 4296.25 666.614C4322.54 689.545 4337.58 724.985 4341.37 772.932H4040.66Z" fill="white"/>
<path d="M4740.28 417.497H4611.1V546.746H4518.51V641.598H4611.1V949.085C4611.1 1001.91 4625 1040.65 4652.8 1065.28C4680.6 1089.96 4723.86 1102.31 4782.58 1102.31H4901.47V1008.5H4815.73C4789.8 1008.5 4770.73 1003.45 4758.57 993.357C4746.36 983.317 4740.28 965.379 4740.28 939.704V641.598H4901.47V546.746H4740.28V417.497Z" fill="white"/>
<path d="M5583.95 972.017L5453.63 546.746H5333.59L5203.27 972.017L5077.52 546.746H4942.62L5127.82 1102.31H5268.43L5393.04 712.477L5518.79 1102.31H5660.54L5845.74 546.746H5710.84L5583.95 972.017Z" fill="white"/>
<path d="M6325.81 570.171C6282.37 546.198 6231.29 534.238 6172.63 534.238C6113.96 534.238 6062.52 546.198 6018.3 570.171C5974.07 594.145 5939.96 627.883 5916.01 671.277C5892.01 714.726 5879.97 765.964 5879.97 825.048C5879.97 884.132 5892.01 934.328 5916.01 977.722C5940.02 1021.17 5974.13 1054.85 6018.3 1078.83C6062.46 1102.8 6113.9 1114.82 6172.63 1114.82C6231.35 1114.82 6282.37 1102.8 6325.81 1078.83C6369.25 1054.85 6403.19 1021.17 6427.55 977.722C6451.92 934.273 6464.14 883.364 6464.14 825.048C6464.14 766.732 6451.92 714.726 6427.55 671.277C6403.19 627.883 6369.25 594.145 6325.81 570.171ZM6288.69 965.214C6260.89 998.952 6222.2 1015.79 6172.63 1015.79C6123.05 1015.79 6083.28 998.952 6055.48 965.214C6027.68 931.53 6013.72 884.79 6013.72 825.048C6013.72 765.306 6027.62 718.566 6055.48 684.882C6083.28 651.199 6122.39 634.357 6172.63 634.357C6222.87 634.357 6260.83 651.199 6288.69 684.882C6316.49 718.621 6330.44 765.306 6330.44 825.048C6330.44 884.79 6316.55 931.53 6288.69 965.214Z" fill="white"/>
<path d="M6717.98 581.637C6699.99 598.314 6686.09 622.178 6676.29 653.283L6672.25 546.746H6554.51V1102.31H6682.54V777.101C6682.54 747.916 6687.72 724.107 6698.01 705.729C6708.29 687.351 6723.7 673.581 6744.27 664.584C6764.85 655.587 6790.72 651.034 6822.01 651.034H6879.17V546.801H6820.87C6777.43 546.801 6743.13 558.431 6717.98 581.692V581.637Z" fill="white"/>
<path d="M7268.93 780.228L7507.86 546.746H7345.53L7079.17 814.625V362.254H6951.13V1102.31H7079.17V952.212L7183.2 852.149L7368.39 1102.31H7515.86L7268.93 780.228Z" fill="white"/>
</svg>
