<svg fill="none" height="1547" viewBox="0 0 7773 1547" width="7773" xmlns="http://www.w3.org/2000/svg"><path d="m0 0h7773v1547h-7773z" fill="#fc6432"/><g fill="#fff"><path d="m1448.79 681.282 39.52-124.832h-203.17l60.51-200.948h-128.51l-134.28 424.224h-266.412l-134.346-424.224h-128.51l60.513 200.948h-203.105l39.517 124.832h201.202l29.622 98.444h-199.679l39.517 124.831h197.713l124.134 412.493h213.124l124.14-412.493h197.71l39.52-124.831h-199.68l29.62-98.444zm-499.137 519.368-93.687-296.029h187.434l-93.684 296.029z"/><path d="m2012.66 983.482-162.34-436.736h-138.32l222.92 555.564h154.33l222.92-555.564h-137.18z"/><path d="m2512.23 356h-133.76v112.572h133.76z"/><path d="m2508.8 546.746h-128.04v555.564h128.04z"/><path d="m3040.37 624.921c-16.78-28.472-40.97-50.745-72.56-66.709-31.65-15.964-69.55-23.974-113.71-23.974-57.16 0-104.45 13.221-141.76 39.609-37.36 26.442-65.34 61.497-84.05 105.275-18.65 43.778-27.98 92.438-27.98 145.926s9.33 102.148 27.98 145.926c18.65 43.776 46.87 78.726 84.59 104.786 37.73 26.05 84.78 39.06 141.22 39.06 35.01 0 66.3-5.05 93.74-15.09 27.43-10.04 50.48-24.69 69.19-43.78 11.37-11.63 20.82-24.52 28.34-38.62l3.07 84.98h120.03v-555.564h-128.04v78.175zm-14.86 293.388c-9.92 29.569-25.75 53.159-47.47 70.878-21.72 17.723-51.26 26.603-88.63 26.603-37.36 0-65.34-9.05-88.62-27.096-23.29-18.049-40.19-41.693-50.84-70.879-10.71-29.185-16.01-60.126-16.01-92.767 0-34.726 5.54-66.544 16.55-95.346 11.01-28.801 28.04-51.951 50.9-69.287 22.86-17.39 52.16-26.058 88.02-26.058s66.91 8.668 88.63 26.058 37.55 40.322 47.47 68.794c9.87 28.527 14.86 60.455 14.86 95.894 0 32.696-4.99 63.747-14.86 93.261z"/><path d="m3726.28 561.887c-30.5-18.432-68.23-27.649-113.17-27.649-32.79 0-62.88 5.376-90.31 16.129-27.44 10.807-50.48 27.649-69.14 50.58-10.1 12.399-18.41 26.881-25.03 43.394l-2.94-97.595h-116.61v555.564h128.04v-319.997c0-48.606 12.75-85.801 38.32-111.53 25.52-25.674 59.27-38.566 101.15-38.566 27.43 0 49.51 5.76 66.3 17.226 16.73 11.466 28.94 28.307 36.58 50.526 7.58 22.218 11.43 49.702 11.43 82.344v319.997h128.04v-357.521c0-40.267-7.82-76.255-23.47-107.909-15.64-31.599-38.68-56.615-69.13-75.047z"/><path d="m4343 569.184c-42.3-23.261-91.64-34.946-148.07-34.946-56.44 0-109.57 12.179-152.65 36.482-43.08 24.357-76.41 58.041-100 101.106-23.64 43.119-35.44 94.193-35.44 153.222s11.8 109.28 35.44 152.674c23.59 43.448 57.34 77.128 101.2 101.108 43.81 23.97 95.49 35.99 154.93 35.99 67.81 0 125.57-15.64 173.23-46.91 47.59-31.27 79.84-73.291 96.57-126.121l-133.76-7.296c-9.14 25.015-25.15 44.82-48.01 59.412-22.86 14.595-51.86 21.885-86.88 21.885-47.29 0-84.78-13.05-112.58-39.056-27.79-26.058-43.25-65.502-46.32-118.331h435.55v-28.143c0-62.54-11.61-115.863-34.84-160.025-23.28-44.107-56.02-77.791-98.31-101.106zm-302.34 203.748c6.86-45.863 23.82-80.753 50.9-104.727 27.07-23.974 61.55-35.988 103.49-35.988 41.93 0 74.9 11.466 101.2 34.397 26.29 22.931 41.33 58.371 45.12 106.318z"/><path d="m4740.28 417.497h-129.18v129.249h-92.59v94.852h92.59v307.487c0 52.825 13.9 91.565 41.7 116.195 27.8 24.68 71.06 37.03 129.78 37.03h118.89v-93.81h-85.74c-25.93 0-45-5.05-57.16-15.143-12.21-10.04-18.29-27.978-18.29-53.653v-298.106h161.19v-94.852h-161.19z"/><path d="m5583.95 972.017-130.32-425.271h-120.04l-130.32 425.271-125.75-425.271h-134.9l185.2 555.564h140.61l124.61-389.833 125.75 389.833h141.75l185.2-555.564h-134.9z"/><path d="m6325.81 570.171c-43.44-23.973-94.52-35.933-153.18-35.933-58.67 0-110.11 11.96-154.33 35.933-44.23 23.974-78.34 57.712-102.29 101.106-24 43.449-36.04 94.687-36.04 153.771s12.04 109.28 36.04 152.674c24.01 43.448 58.12 77.128 102.29 101.108 44.16 23.97 95.6 35.99 154.33 35.99 58.72 0 109.74-12.02 153.18-35.99 43.44-23.98 77.38-57.66 101.74-101.108 24.37-43.449 36.59-94.358 36.59-152.674s-12.22-110.322-36.59-153.771c-24.36-43.394-58.3-77.132-101.74-101.106zm-37.12 395.043c-27.8 33.738-66.49 50.576-116.06 50.576-49.58 0-89.35-16.838-117.15-50.576-27.8-33.684-41.76-80.424-41.76-140.166s13.9-106.482 41.76-140.166c27.8-33.683 66.91-50.525 117.15-50.525s88.2 16.842 116.06 50.525c27.8 33.739 41.75 80.424 41.75 140.166s-13.89 106.482-41.75 140.166z"/><path d="m6717.98 581.637c-17.99 16.677-31.89 40.541-41.69 71.646l-4.04-106.537h-117.74v555.564h128.03v-325.209c0-29.185 5.18-52.994 15.47-71.372 10.28-18.378 25.69-32.148 46.26-41.145 20.58-8.997 46.45-13.55 77.74-13.55h57.16v-104.233h-58.3c-43.44 0-77.74 11.63-102.89 34.891z"/><path d="m7268.93 780.228 238.93-233.482h-162.33l-266.36 267.879v-452.371h-128.04v740.056h128.04v-150.098l104.03-100.063 185.19 250.161h147.47z"/></g></svg>