<svg width="7105" height="962" viewBox="0 0 7105 962" fill="none" xmlns="http://www.w3.org/2000/svg">
<path d="M1037.79 325.78L1077.31 200.948H874.137L934.65 0H806.14L671.857 424.224H405.448L271.102 0H142.592L203.105 200.948H0L39.5173 325.78H240.719L270.341 424.224H70.6617L110.179 549.055H307.892L432.026 961.545H645.153L769.286 549.055H967L1006.52 424.224H806.837L836.459 325.78H1037.79ZM538.653 845.149L444.966 549.119H632.403L538.716 845.149H538.653Z" fill="#FC6432"/>
<path d="M1601.66 627.98L1439.32 191.244H1301L1523.92 746.806H1678.25L1901.17 191.244H1763.99L1601.66 627.98Z" fill="white"/>
<path d="M2101.23 0.498047H1967.47V113.07H2101.23V0.498047Z" fill="white"/>
<path d="M2097.8 191.244H1969.76V746.806H2097.8V191.244Z" fill="white"/>
<path d="M2629.37 269.419C2612.59 240.947 2588.4 218.674 2556.81 202.71C2525.16 186.746 2487.26 178.736 2443.1 178.736C2385.94 178.736 2338.65 191.957 2301.34 218.345C2263.98 244.787 2236 279.842 2217.29 323.62C2198.64 367.398 2189.31 416.058 2189.31 469.546C2189.31 523.034 2198.64 571.694 2217.29 615.472C2235.94 659.25 2264.16 694.195 2301.88 720.254C2339.61 746.312 2386.66 759.314 2443.1 759.314C2478.11 759.314 2509.4 754.267 2536.84 744.227C2564.27 734.188 2587.32 719.54 2606.03 700.449C2617.4 688.819 2626.85 675.927 2634.37 661.828L2637.44 746.806H2757.47V191.244H2629.43V269.419H2629.37ZM2614.51 562.807C2604.59 592.376 2588.76 615.966 2567.04 633.685C2545.32 651.405 2515.78 660.292 2478.41 660.292C2441.05 660.292 2413.07 651.241 2389.79 633.192C2366.5 615.143 2349.6 591.499 2338.95 562.313C2328.24 533.128 2322.94 502.187 2322.94 469.546C2322.94 434.82 2328.48 403.002 2339.49 374.2C2350.5 345.399 2367.53 322.249 2390.39 304.913C2413.25 287.523 2442.55 278.855 2478.41 278.855C2514.27 278.855 2545.32 287.523 2567.04 304.913C2588.76 322.303 2604.59 345.235 2614.51 373.707C2624.38 402.234 2629.37 434.162 2629.37 469.601C2629.37 502.297 2624.38 533.348 2614.51 562.862V562.807Z" fill="white"/>
<path d="M3315.28 206.385C3284.78 187.953 3247.05 178.736 3202.11 178.736C3169.32 178.736 3139.23 184.113 3111.8 194.865C3084.36 205.672 3061.32 222.514 3042.66 245.445C3032.56 257.844 3024.25 272.326 3017.63 288.839L3014.69 191.244H2898.08V746.806H3026.12V426.811C3026.12 378.205 3038.87 341.01 3064.44 315.281C3089.96 289.607 3123.71 276.715 3165.59 276.715C3193.02 276.715 3215.1 282.475 3231.89 293.941C3248.62 305.407 3260.83 322.249 3268.47 344.467C3276.05 366.685 3279.9 394.169 3279.9 426.811V746.806H3407.94V389.287C3407.94 349.02 3400.12 313.032 3384.47 281.378C3368.83 249.779 3345.79 224.763 3315.34 206.331L3315.28 206.385Z" fill="white"/>
<path d="M3932 213.682C3889.7 190.421 3840.36 178.736 3783.93 178.736C3727.49 178.736 3674.36 190.915 3631.28 215.218C3588.2 239.575 3554.87 273.259 3531.28 316.324C3507.64 359.443 3495.84 410.517 3495.84 469.546C3495.84 528.575 3507.64 578.826 3531.28 622.22C3554.87 665.669 3588.62 699.352 3632.48 723.326C3676.29 747.299 3727.97 759.314 3787.41 759.314C3855.22 759.314 3912.98 743.679 3960.64 712.409C4008.23 681.139 4040.48 639.117 4057.21 586.287L3923.45 578.991C3914.31 604.007 3898.3 623.811 3875.44 638.403C3852.58 652.996 3823.58 660.292 3788.56 660.292C3741.27 660.292 3703.78 647.236 3675.98 621.232C3648.19 595.174 3632.73 555.73 3629.66 502.901H4065.21V474.758C4065.21 412.218 4053.6 358.895 4030.37 314.733C4007.09 270.626 3974.35 236.942 3932.06 213.627L3932 213.682ZM3629.66 417.43C3636.52 371.567 3653.48 336.677 3680.56 312.703C3707.63 288.729 3742.11 276.715 3784.05 276.715C3825.98 276.715 3858.95 288.181 3885.25 311.112C3911.54 334.043 3926.58 369.483 3930.37 417.43H3629.66Z" fill="white"/>
<path d="M4329.28 61.9955H4200.1V191.244H4107.51V286.096H4200.1V593.583C4200.1 646.413 4214 685.144 4241.8 709.775C4269.6 734.462 4312.86 746.806 4371.58 746.806H4490.47V652.996H4404.73C4378.8 652.996 4359.73 647.949 4347.57 637.855C4335.36 627.815 4329.28 609.877 4329.28 584.202V286.096H4490.47V191.244H4329.28V61.9955Z" fill="white"/>
<path d="M5172.95 616.515L5042.63 191.244H4922.59L4792.27 616.515L4666.52 191.244H4531.62L4716.82 746.806H4857.43L4982.04 356.975L5107.79 746.806H5249.54L5434.74 191.244H5299.84L5172.95 616.515Z" fill="white"/>
<path d="M5914.81 214.669C5871.37 190.696 5820.29 178.736 5761.63 178.736C5702.96 178.736 5651.52 190.696 5607.3 214.669C5563.07 238.643 5528.96 272.381 5505.01 315.775C5481 359.224 5468.97 410.462 5468.97 469.546C5468.97 528.63 5481 578.826 5505.01 622.22C5529.02 665.669 5563.13 699.352 5607.3 723.326C5651.46 747.299 5702.9 759.314 5761.63 759.314C5820.35 759.314 5871.37 747.299 5914.81 723.326C5958.25 699.352 5992.19 665.669 6016.55 622.22C6040.92 578.771 6053.14 527.862 6053.14 469.546C6053.14 411.231 6040.92 359.224 6016.55 315.775C5992.19 272.381 5958.25 238.643 5914.81 214.669ZM5877.69 609.712C5849.89 643.451 5811.2 660.292 5761.63 660.292C5712.05 660.292 5672.28 643.451 5644.48 609.712C5616.68 576.028 5602.72 529.288 5602.72 469.546C5602.72 409.804 5616.62 363.064 5644.48 329.38C5672.28 295.697 5711.39 278.855 5761.63 278.855C5811.87 278.855 5849.83 295.697 5877.69 329.38C5905.49 363.119 5919.44 409.804 5919.44 469.546C5919.44 529.288 5905.55 576.028 5877.69 609.712Z" fill="white"/>
<path d="M6306.98 226.135C6288.99 242.812 6275.09 266.676 6265.29 297.781L6261.25 191.244H6143.51V746.806H6271.54V421.599C6271.54 392.414 6276.72 368.605 6287.01 350.227C6297.29 331.849 6312.7 318.079 6333.27 309.082C6353.85 300.085 6379.72 295.532 6411.01 295.532H6468.17V191.299H6409.87C6366.43 191.299 6332.13 202.929 6306.98 226.19V226.135Z" fill="white"/>
<path d="M6857.94 424.726L7096.86 191.244H6934.53L6668.17 459.123V6.75202H6540.13V746.806H6668.17V596.71L6772.2 496.647L6957.39 746.806H7104.86L6857.94 424.726Z" fill="white"/>
</svg>
